<svg preserveAspectRatio="none" width="100%" height="100%" overflow="visible" style="display: block;" viewBox="0 0 300.003 61.0102" fill="none" xmlns="http://www.w3.org/2000/svg">
<g id="Group">
<path id="Vector" d="M215.136 58.273C215.114 58.273 215.096 58.2552 215.113 58.2196L215.804 56.0823C215.844 55.9624 215.883 55.9624 215.918 56.0823L216.662 58.2196C216.67 58.2508 216.67 58.273 216.631 58.273H215.136ZM214.036 60.0193C213.895 60.4147 213.737 60.7169 213.381 60.7658C213.315 60.7747 213.209 60.7835 213.152 60.7835C213.112 60.7835 213.082 60.7969 213.082 60.828C213.082 60.8769 213.13 60.8902 213.231 60.8902C213.601 60.8902 214.032 60.868 214.115 60.868C214.199 60.868 214.537 60.8902 214.726 60.8902C214.797 60.8902 214.845 60.8769 214.845 60.828C214.845 60.7969 214.823 60.7835 214.766 60.7835H214.687C214.555 60.7835 214.388 60.7124 214.388 60.5525C214.388 60.4103 214.427 60.2192 214.498 60.0193L214.968 58.6196C214.986 58.5796 215.008 58.5574 215.048 58.5574H216.732C216.772 58.5574 216.785 58.5751 216.802 58.6062L217.532 60.5525C217.581 60.6769 217.532 60.7524 217.484 60.7658C217.453 60.7747 217.427 60.788 217.427 60.8191C217.427 60.868 217.515 60.868 217.664 60.8769C218.201 60.8902 218.777 60.8902 218.891 60.8902C218.979 60.8902 219.05 60.8769 219.05 60.828C219.05 60.788 219.019 60.7835 218.971 60.7835C218.891 60.7835 218.773 60.7746 218.658 60.7347C218.491 60.6858 218.267 60.5614 217.981 59.8549C217.506 58.6507 216.275 55.3847 216.156 55.0826C216.063 54.8382 216.028 54.7982 215.984 54.7982C215.936 54.7982 215.905 54.8471 215.813 55.1092L214.036 60.0237V60.0193ZM207.637 61.0057C208.059 61.0057 208.481 60.9124 208.82 60.6724C209.357 60.2859 209.484 59.6816 209.484 59.3572C209.484 58.7218 209.269 58.233 208.341 57.4954L208.121 57.3221C207.369 56.7266 207.162 56.4423 207.162 55.9935C207.162 55.4158 207.584 55.0737 208.13 55.0737C208.851 55.0737 209.062 55.4069 209.11 55.4958C209.159 55.5847 209.203 55.798 209.211 55.8913C209.22 55.9535 209.229 55.9935 209.273 55.9935C209.313 55.9935 209.326 55.9401 209.326 55.8113C209.326 55.2736 209.357 55.0115 209.357 54.9715C209.357 54.9359 209.343 54.9182 209.282 54.9182C209.22 54.9182 209.159 54.9093 209.009 54.8782C208.816 54.8293 208.587 54.7982 208.279 54.7982C207.281 54.7982 206.656 55.3758 206.656 56.2201C206.656 56.7578 206.845 57.251 207.672 57.9397L208.024 58.233C208.697 58.7929 208.926 59.1128 208.926 59.6593C208.926 60.1659 208.556 60.7124 207.804 60.7124C207.276 60.7124 206.762 60.4903 206.643 59.9082C206.621 59.7971 206.621 59.686 206.621 59.6149C206.621 59.5527 206.612 59.526 206.568 59.526C206.529 59.526 206.515 59.566 206.507 59.6549C206.498 59.7838 206.467 60.0992 206.467 60.4947C206.467 60.708 206.476 60.7391 206.581 60.7969C206.902 60.9568 207.263 61.0102 207.633 61.0102M201.167 57.2021C201.167 55.9668 201.167 55.7491 201.181 55.4914C201.194 55.2159 201.26 55.0781 201.471 55.0381C201.563 55.0204 201.612 55.0159 201.664 55.0159C201.695 55.0159 201.726 54.9981 201.726 54.967C201.726 54.9226 201.686 54.9048 201.603 54.9048C201.37 54.9048 200.877 54.927 200.838 54.927C200.798 54.927 200.305 54.9048 200.046 54.9048C199.958 54.9048 199.918 54.9226 199.918 54.967C199.918 54.9981 199.949 55.0159 199.984 55.0159C200.037 55.0159 200.138 55.0248 200.226 55.047C200.398 55.087 200.477 55.2203 200.49 55.4914C200.508 55.7446 200.508 55.9668 200.508 57.2021V58.5973C200.508 59.3572 200.508 59.9837 200.468 60.317C200.437 60.548 200.398 60.7213 200.24 60.7524C200.169 60.7702 200.077 60.7835 200.006 60.7835C199.958 60.7835 199.945 60.8058 199.945 60.828C199.945 60.8769 199.984 60.8902 200.072 60.8902C200.305 60.8902 200.802 60.868 200.842 60.868C200.882 60.868 201.374 60.8902 201.805 60.8902C201.893 60.8902 201.933 60.868 201.933 60.828C201.933 60.8058 201.915 60.7835 201.871 60.7835C201.801 60.7835 201.625 60.7658 201.515 60.7524C201.282 60.7213 201.233 60.548 201.211 60.317C201.172 59.9837 201.172 59.3572 201.172 58.5973V57.2021H201.167ZM190.076 56.0246C190.326 56.309 191.21 57.3087 192.116 58.2952C192.943 59.1972 194.069 60.3614 194.157 60.4414C194.571 60.8591 194.667 60.9479 194.733 60.9479C194.786 60.9479 194.804 60.908 194.804 60.3836L194.817 55.7446C194.817 55.2692 194.848 55.0959 195.107 55.0381C195.199 55.0159 195.257 55.0159 195.296 55.0159C195.353 55.0159 195.384 54.9937 195.384 54.9626C195.384 54.9182 195.327 54.9093 195.243 54.9093C194.922 54.9093 194.663 54.9315 194.575 54.9315C194.487 54.9315 194.113 54.9093 193.761 54.9093C193.669 54.9093 193.603 54.9182 193.603 54.9626C193.603 54.9937 193.612 55.0159 193.665 55.0159C193.726 55.0159 193.906 55.0248 194.047 55.0559C194.289 55.1181 194.346 55.2914 194.351 55.8068L194.439 59.8282C194.188 59.566 193.335 58.6018 192.561 57.762C191.356 56.4556 190.19 55.1803 190.071 55.047C189.992 54.967 189.86 54.7937 189.799 54.7937C189.737 54.7937 189.715 54.8826 189.715 55.1892L189.706 59.726C189.706 60.4458 189.667 60.6725 189.473 60.7302C189.354 60.7702 189.214 60.7791 189.152 60.7791C189.113 60.7791 189.091 60.7924 189.091 60.8235C189.091 60.8813 189.139 60.8857 189.218 60.8857C189.57 60.8857 189.9 60.8635 189.97 60.8635C190.041 60.8635 190.353 60.8857 190.801 60.8857C190.894 60.8857 190.942 60.8724 190.942 60.8235C190.942 60.7924 190.92 60.7791 190.881 60.7791C190.81 60.7791 190.639 60.7702 190.489 60.7302C190.278 60.668 190.199 60.4592 190.186 59.8149L190.085 56.0201L190.076 56.0246ZM182.049 58.5973C182.049 59.3572 182.049 59.9837 182.01 60.317C181.979 60.548 181.939 60.7213 181.781 60.7524C181.711 60.7702 181.618 60.7835 181.548 60.7835C181.504 60.7835 181.486 60.8058 181.486 60.828C181.486 60.8769 181.526 60.8902 181.614 60.8902C181.733 60.8902 181.913 60.8769 182.067 60.8769C182.234 60.868 182.366 60.868 182.379 60.868C182.498 60.868 182.683 60.8769 182.991 60.8902C183.294 60.8991 183.725 60.9124 184.314 60.9124C184.622 60.9124 184.684 60.9124 184.737 60.7036C184.776 60.5391 184.838 60.0015 184.838 59.9393C184.838 59.886 184.838 59.8193 184.789 59.8193C184.75 59.8193 184.737 59.8504 184.719 59.9393C184.666 60.2637 184.569 60.4236 184.367 60.508C184.165 60.5969 183.817 60.5969 183.615 60.5969C182.845 60.5969 182.731 60.4947 182.705 59.9482C182.696 59.7838 182.705 58.864 182.705 58.5929V57.8953C182.705 57.8642 182.722 57.842 182.758 57.842C182.889 57.842 183.668 57.8597 183.879 57.8819C184.182 57.9131 184.253 58.0508 184.284 58.1574C184.319 58.2596 184.319 58.3396 184.319 58.4196C184.319 58.4596 184.332 58.4907 184.372 58.4907C184.424 58.4907 184.424 58.4018 184.424 58.3396C184.424 58.2863 184.442 57.9886 184.46 57.8331C184.482 57.5709 184.521 57.4376 184.521 57.3887C184.521 57.3398 184.504 57.3265 184.482 57.3265C184.446 57.3265 184.42 57.3665 184.367 57.4287C184.297 57.5087 184.187 57.522 183.998 57.5398C183.817 57.5576 182.854 57.5576 182.753 57.5576C182.714 57.5576 182.705 57.5309 182.705 57.4776V55.2914C182.705 55.2381 182.722 55.2114 182.753 55.2114C182.841 55.2114 183.694 55.2203 183.826 55.2336C184.248 55.2825 184.328 55.3758 184.38 55.5047C184.42 55.598 184.424 55.7358 184.424 55.7891C184.424 55.8513 184.442 55.8913 184.49 55.8913C184.521 55.8913 184.539 55.8424 184.547 55.8024C184.561 55.7091 184.578 55.3581 184.587 55.2781C184.609 55.0559 184.649 54.9626 184.649 54.9048C184.649 54.8648 184.644 54.8337 184.618 54.8337C184.578 54.8337 184.547 54.8648 184.508 54.8737C184.446 54.8915 184.323 54.9048 184.174 54.9137C183.993 54.9226 182.436 54.9226 182.384 54.9226L182.063 54.9048C181.891 54.8959 181.68 54.8959 181.5 54.8959C181.412 54.8959 181.372 54.9137 181.372 54.9581C181.372 54.9892 181.403 55.007 181.434 55.007C181.504 55.007 181.636 55.0159 181.702 55.0292C181.961 55.0826 182.023 55.2114 182.036 55.4825C182.054 55.7357 182.054 55.9579 182.054 57.1932V58.584L182.049 58.5973ZM175.175 55.247L176.161 55.2647C176.913 55.2825 177.097 55.4647 177.124 55.7002L177.132 55.7846C177.141 55.8957 177.159 55.9179 177.194 55.9179C177.229 55.9179 177.251 55.8868 177.251 55.8157C177.251 55.7313 177.273 55.1848 177.273 54.9448C177.273 54.8959 177.273 54.8515 177.238 54.8515C177.203 54.8515 177.132 54.8737 177.018 54.8915C176.891 54.9137 176.715 54.9315 176.46 54.9315H173.526C173.434 54.9315 173.135 54.9137 172.91 54.8915C172.699 54.8737 172.62 54.7982 172.563 54.7982C172.532 54.7982 172.501 54.9004 172.484 54.9493C172.466 55.0115 172.312 55.6913 172.312 55.7713C172.312 55.8202 172.33 55.8424 172.352 55.8424C172.383 55.8424 172.405 55.8246 172.431 55.7624C172.453 55.7091 172.479 55.6513 172.563 55.518C172.691 55.327 172.875 55.2736 173.363 55.2647L174.524 55.247V58.5973C174.524 59.3572 174.524 59.9837 174.485 60.317C174.454 60.548 174.415 60.7213 174.261 60.7524C174.19 60.7702 174.098 60.7835 174.027 60.7835C173.979 60.7835 173.962 60.8058 173.962 60.828C173.962 60.8769 174.001 60.8902 174.089 60.8902C174.327 60.8902 174.815 60.868 174.854 60.868C174.894 60.868 175.386 60.8902 175.817 60.8902C175.905 60.8902 175.941 60.868 175.941 60.828C175.941 60.8058 175.927 60.7835 175.879 60.7835C175.809 60.7835 175.637 60.7658 175.527 60.7524C175.294 60.7213 175.246 60.548 175.224 60.317C175.184 59.9837 175.184 59.3572 175.184 58.5973V55.247H175.175ZM163.068 56.0246C163.318 56.309 164.202 57.3087 165.108 58.2952C165.94 59.1972 167.065 60.3614 167.153 60.4414C167.567 60.8591 167.664 60.9479 167.725 60.9479C167.778 60.9479 167.796 60.908 167.796 60.3836L167.809 55.7446C167.809 55.2692 167.844 55.0959 168.099 55.0381C168.191 55.0159 168.249 55.0159 168.288 55.0159C168.341 55.0159 168.376 54.9937 168.376 54.9626C168.376 54.9182 168.323 54.9093 168.235 54.9093C167.914 54.9093 167.655 54.9315 167.567 54.9315C167.479 54.9315 167.105 54.9093 166.753 54.9093C166.661 54.9093 166.595 54.9182 166.595 54.9626C166.595 54.9937 166.604 55.0159 166.661 55.0159C166.722 55.0159 166.903 55.0248 167.043 55.0559C167.285 55.1181 167.338 55.2914 167.347 55.8068L167.435 59.8282C167.184 59.566 166.331 58.6018 165.557 57.762C164.352 56.4556 163.186 55.1803 163.068 55.047C162.989 54.967 162.857 54.7937 162.791 54.7937C162.725 54.7937 162.707 54.8826 162.707 55.1892L162.698 59.726C162.698 60.4458 162.659 60.6725 162.465 60.7302C162.346 60.7702 162.206 60.7791 162.144 60.7791C162.105 60.7791 162.083 60.7924 162.083 60.8235C162.083 60.8813 162.127 60.8857 162.21 60.8857C162.562 60.8857 162.892 60.8635 162.962 60.8635C163.033 60.8635 163.345 60.8857 163.789 60.8857C163.881 60.8857 163.93 60.8724 163.93 60.8235C163.93 60.7924 163.908 60.7791 163.868 60.7791C163.798 60.7791 163.626 60.7702 163.477 60.7302C163.266 60.668 163.186 60.4592 163.169 59.8149L163.068 56.0201V56.0246ZM152.746 57.6731C152.746 55.9401 153.722 55.0692 155.033 55.0692C156.273 55.0692 157.412 56.0912 157.412 57.9886C157.412 60.2948 155.956 60.7036 155.252 60.7036C153.845 60.7036 152.746 59.5171 152.746 57.6731ZM151.998 57.8953C151.998 59.3216 152.891 61.0057 155.037 61.0057C156.924 61.0057 158.16 59.5438 158.16 57.7664C158.16 55.989 156.845 54.7982 155.081 54.7982C152.922 54.7982 151.994 56.6111 151.994 57.8908M146.839 55.0115C146.822 54.8604 146.8 54.7982 146.747 54.7982C146.694 54.7982 146.659 54.8515 146.628 54.927L144.328 59.8993L141.931 54.9226C141.891 54.8337 141.861 54.8026 141.812 54.8026C141.764 54.8026 141.733 54.8559 141.724 54.9448L141.161 60.1081C141.131 60.4058 141.104 60.7169 140.849 60.7658C140.73 60.788 140.678 60.788 140.616 60.788C140.576 60.788 140.537 60.8013 140.537 60.828C140.537 60.8857 140.59 60.8991 140.669 60.8991C140.88 60.8991 141.258 60.8769 141.328 60.8769C141.39 60.8769 141.768 60.8991 142.059 60.8991C142.151 60.8991 142.199 60.8857 142.199 60.828C142.199 60.8058 142.168 60.788 142.138 60.788C142.089 60.788 141.971 60.7791 141.839 60.748C141.72 60.7258 141.636 60.6236 141.636 60.5036C141.636 60.3703 141.636 60.2281 141.645 60.0992L141.957 56.4245H141.988C142.072 56.6378 142.951 58.5396 143.022 58.6818C143.061 58.7618 143.734 60.1303 143.936 60.5169C144.086 60.8013 144.126 60.8813 144.178 60.8813C144.249 60.8813 144.271 60.8102 144.438 60.4592L146.355 56.3445H146.382L146.756 60.4281C146.773 60.5702 146.764 60.7036 146.725 60.7124C146.685 60.7213 146.672 60.7347 146.672 60.7658C146.672 60.8058 146.712 60.828 146.892 60.8457C147.182 60.868 148.027 60.8946 148.198 60.8946C148.29 60.8946 148.361 60.8724 148.361 60.8235C148.361 60.7924 148.339 60.7835 148.299 60.7835C148.22 60.7835 148.018 60.7835 147.789 60.7124C147.455 60.6014 147.398 60.157 147.367 59.8726L146.844 55.0115H146.839ZM127.435 58.273C127.413 58.273 127.396 58.2552 127.413 58.2196L128.104 56.0823C128.143 55.9624 128.183 55.9624 128.222 56.0823L128.966 58.2196C128.975 58.2508 128.975 58.273 128.935 58.273H127.44H127.435ZM126.34 60.0193C126.199 60.4147 126.041 60.7169 125.68 60.7658C125.619 60.7747 125.509 60.7835 125.452 60.7835C125.412 60.7835 125.381 60.7969 125.381 60.828C125.381 60.8769 125.43 60.8902 125.531 60.8902C125.9 60.8902 126.331 60.868 126.415 60.868C126.498 60.868 126.837 60.8902 127.026 60.8902C127.097 60.8902 127.145 60.8769 127.145 60.828C127.145 60.7969 127.119 60.7835 127.066 60.7835H126.987C126.855 60.7835 126.688 60.7124 126.688 60.5525C126.688 60.4103 126.727 60.2192 126.797 60.0193L127.268 58.6196C127.286 58.5796 127.308 58.5574 127.347 58.5574H129.032C129.071 58.5574 129.084 58.5751 129.102 58.6062L129.832 60.5525C129.88 60.6769 129.832 60.7524 129.788 60.7658C129.757 60.7747 129.731 60.788 129.731 60.8191C129.731 60.868 129.819 60.868 129.968 60.8769C130.509 60.8902 131.081 60.8902 131.2 60.8902C131.288 60.8902 131.354 60.8769 131.354 60.828C131.354 60.788 131.323 60.7835 131.275 60.7835C131.195 60.7835 131.081 60.7746 130.962 60.7347C130.8 60.6858 130.571 60.5614 130.289 59.8549C129.81 58.6507 128.583 55.3847 128.464 55.0826C128.372 54.8382 128.337 54.7982 128.293 54.7982C128.249 54.7982 128.214 54.8471 128.121 55.1092L126.344 60.0237L126.34 60.0193ZM120.464 55.247L121.45 55.2647C122.197 55.2825 122.386 55.4647 122.413 55.7002L122.421 55.7846C122.43 55.8957 122.443 55.9179 122.487 55.9179C122.518 55.9179 122.545 55.8868 122.545 55.8157C122.545 55.7313 122.567 55.1848 122.567 54.9448C122.567 54.8959 122.567 54.8515 122.527 54.8515C122.496 54.8515 122.426 54.8737 122.307 54.8915C122.184 54.9137 121.999 54.9315 121.753 54.9315H118.82C118.723 54.9315 118.428 54.9137 118.199 54.8915C117.988 54.8737 117.909 54.7982 117.856 54.7982C117.826 54.7982 117.795 54.9004 117.777 54.9493C117.76 55.0115 117.606 55.6913 117.606 55.7713C117.606 55.8202 117.623 55.8424 117.645 55.8424C117.676 55.8424 117.702 55.8246 117.724 55.7624C117.746 55.7091 117.773 55.6513 117.856 55.518C117.98 55.327 118.173 55.2736 118.657 55.2647L119.813 55.247V58.5973C119.813 59.3572 119.813 59.9837 119.774 60.317C119.743 60.548 119.704 60.7213 119.545 60.7524C119.475 60.7702 119.378 60.7835 119.308 60.7835C119.264 60.7835 119.246 60.8058 119.246 60.828C119.246 60.8769 119.286 60.8902 119.374 60.8902C119.607 60.8902 120.099 60.868 120.139 60.868C120.179 60.868 120.671 60.8902 121.102 60.8902C121.19 60.8902 121.23 60.868 121.23 60.828C121.23 60.8058 121.212 60.7835 121.168 60.7835C121.098 60.7835 120.926 60.7658 120.816 60.7524C120.579 60.7213 120.535 60.548 120.513 60.317C120.473 59.9837 120.473 59.3572 120.473 58.5973V55.247H120.464ZM108.709 58.3618C108.709 59.5171 109.008 60.0726 109.386 60.4458C109.944 60.9746 110.736 61.0057 111 61.0057C111.462 61.0057 112.051 60.9257 112.614 60.4192C113.238 59.8593 113.331 58.9084 113.331 58.0508V57.2021C113.331 55.9668 113.331 55.7491 113.348 55.4914C113.366 55.2159 113.428 55.087 113.639 55.0381C113.731 55.0204 113.779 55.0159 113.832 55.0159C113.863 55.0159 113.894 54.9981 113.894 54.967C113.894 54.9226 113.854 54.9048 113.766 54.9048C113.533 54.9048 113.164 54.927 113.107 54.927C113.058 54.927 112.632 54.9048 112.275 54.9048C112.187 54.9048 112.148 54.9226 112.148 54.967C112.148 54.9981 112.179 55.0159 112.209 55.0159C112.28 55.0159 112.416 55.0248 112.478 55.0381C112.737 55.0914 112.799 55.2203 112.816 55.4914C112.834 55.7446 112.834 55.9668 112.834 57.2021V58.193C112.834 59.0106 112.742 59.6816 112.381 60.1348C112.099 60.4769 111.629 60.7036 111.149 60.7036C110.705 60.7036 110.349 60.6325 109.966 60.2681C109.628 59.9437 109.377 59.4505 109.377 58.313V57.2021C109.377 55.9668 109.377 55.7491 109.395 55.4914C109.412 55.2159 109.474 55.0692 109.685 55.0381C109.777 55.0204 109.826 55.0159 109.883 55.0159C109.914 55.0159 109.944 54.9981 109.944 54.967C109.944 54.9226 109.905 54.9048 109.817 54.9048C109.584 54.9048 109.113 54.927 109.043 54.927C108.972 54.927 108.497 54.9048 108.146 54.9048C108.062 54.9048 108.018 54.9226 108.018 54.967C108.018 54.9981 108.049 55.0159 108.08 55.0159C108.15 55.0159 108.282 55.0248 108.344 55.0381C108.603 55.0914 108.665 55.2203 108.682 55.4914C108.7 55.7446 108.7 55.9668 108.7 57.2021V58.3574L108.709 58.3618ZM98.7251 56.0246C98.9758 56.309 99.8598 57.3087 100.766 58.2952C101.597 59.1972 102.723 60.3614 102.806 60.4414C103.224 60.8591 103.317 60.9479 103.378 60.9479C103.431 60.9479 103.449 60.908 103.449 60.3836L103.462 55.7446C103.462 55.2692 103.497 55.0959 103.752 55.0381C103.849 55.0159 103.902 55.0159 103.941 55.0159C103.994 55.0159 104.025 54.9937 104.025 54.9626C104.025 54.9182 103.972 54.9093 103.884 54.9093C103.563 54.9093 103.303 54.9315 103.22 54.9315C103.136 54.9315 102.754 54.9093 102.406 54.9093C102.314 54.9093 102.248 54.9182 102.248 54.9626C102.248 54.9937 102.257 55.0159 102.309 55.0159C102.371 55.0159 102.551 55.0248 102.692 55.0559C102.934 55.1181 102.987 55.2914 102.996 55.8068L103.084 59.8282C102.833 59.566 101.98 58.6018 101.206 57.762C100.001 56.4556 98.8351 55.1803 98.7163 55.047C98.6372 54.967 98.5052 54.7937 98.4437 54.7937C98.3821 54.7937 98.3601 54.8826 98.3601 55.1892L98.3513 59.726C98.3513 60.4458 98.3117 60.6725 98.1138 60.7302C97.9951 60.7702 97.8587 60.7791 97.7928 60.7791C97.7532 60.7791 97.7312 60.7924 97.7312 60.8235C97.7312 60.8813 97.7752 60.8857 97.8543 60.8857C98.2062 60.8857 98.536 60.8635 98.6064 60.8635C98.6768 60.8635 98.9934 60.8857 99.4376 60.8857C99.53 60.8857 99.5783 60.8724 99.5783 60.8235C99.5783 60.7924 99.5564 60.7791 99.5168 60.7791C99.4464 60.7791 99.2749 60.7702 99.1254 60.7302C98.9142 60.668 98.8351 60.4592 98.8175 59.8149L98.7163 56.0201L98.7251 56.0246ZM90.7032 58.5973C90.7032 59.3572 90.7032 59.9837 90.6636 60.317C90.6284 60.548 90.5932 60.7213 90.4349 60.7524C90.3646 60.7702 90.2722 60.7835 90.2018 60.7835C90.1534 60.7835 90.1403 60.8058 90.1403 60.828C90.1403 60.8769 90.1798 60.8902 90.2634 60.8902C90.3821 60.8902 90.5625 60.8769 90.7164 60.8769C90.8835 60.868 91.0111 60.868 91.0287 60.868C91.1474 60.868 91.3321 60.8769 91.64 60.8902C91.9478 60.8991 92.3788 60.9124 92.9638 60.9124C93.2672 60.9124 93.3332 60.9124 93.386 60.7036C93.4256 60.5391 93.4871 60.0015 93.4871 59.9393C93.4871 59.886 93.4871 59.8193 93.4387 59.8193C93.3992 59.8193 93.3816 59.8504 93.3684 59.9393C93.3156 60.2637 93.2189 60.4236 93.0165 60.508C92.8142 60.5969 92.4668 60.5969 92.2645 60.5969C91.4948 60.5969 91.3805 60.4947 91.3541 59.9482C91.3453 59.7838 91.3541 58.864 91.3541 58.5929V57.8953C91.3541 57.8642 91.3717 57.842 91.4069 57.842C91.5388 57.842 92.3173 57.8597 92.5284 57.8819C92.8362 57.9131 92.9022 58.0508 92.9374 58.1574C92.9682 58.2596 92.9682 58.3396 92.9682 58.4196C92.9682 58.4596 92.9814 58.4907 93.0209 58.4907C93.0737 58.4907 93.0737 58.4018 93.0737 58.3396C93.0737 58.2863 93.0869 57.9886 93.1045 57.8331C93.1265 57.5709 93.1661 57.4376 93.1661 57.3887C93.1661 57.3398 93.1529 57.3265 93.1265 57.3265C93.0957 57.3265 93.0605 57.3665 93.0077 57.4287C92.9374 57.5087 92.8274 57.522 92.6383 57.5398C92.458 57.5576 91.4948 57.5576 91.3937 57.5576C91.3541 57.5576 91.3453 57.5309 91.3453 57.4776V55.2914C91.3453 55.2381 91.3629 55.2114 91.3937 55.2114C91.4816 55.2114 92.3305 55.2203 92.4668 55.2336C92.889 55.2825 92.9682 55.3758 93.0209 55.5047C93.0605 55.598 93.0693 55.7358 93.0693 55.7891C93.0693 55.8513 93.0825 55.8913 93.1309 55.8913C93.1617 55.8913 93.1793 55.8424 93.1837 55.8024C93.1969 55.7091 93.2145 55.3581 93.2232 55.2781C93.2452 55.0559 93.2848 54.9626 93.2848 54.9048C93.2848 54.8648 93.276 54.8337 93.254 54.8337C93.2145 54.8337 93.1837 54.8648 93.1441 54.8737C93.0825 54.8915 92.9594 54.9048 92.8098 54.9137C92.6295 54.9226 91.0682 54.9226 91.0155 54.9226L90.6944 54.9048C90.5229 54.8959 90.3118 54.8959 90.1315 54.8959C90.0435 54.8959 90.0083 54.9137 90.0083 54.9581C90.0083 54.9892 90.0391 55.007 90.0699 55.007C90.1403 55.007 90.2722 55.0159 90.3382 55.0292C90.5976 55.0826 90.6592 55.2114 90.6768 55.4825C90.69 55.7357 90.69 55.9579 90.69 57.1932V58.584L90.7032 58.5973ZM83.8247 55.247L84.8099 55.2647C85.562 55.2825 85.7467 55.4647 85.7731 55.7002L85.7818 55.7891C85.7906 55.9002 85.8082 55.9224 85.8434 55.9224C85.8786 55.9224 85.9006 55.8913 85.9006 55.8202C85.9006 55.7358 85.9226 55.1892 85.9226 54.9493C85.9226 54.9004 85.9226 54.8559 85.883 54.8559C85.8522 54.8559 85.7775 54.8782 85.6631 54.8959C85.54 54.9182 85.3596 54.9359 85.109 54.9359H82.1755C82.0831 54.9359 81.7841 54.9182 81.5554 54.8959C81.3443 54.8782 81.2651 54.8026 81.2123 54.8026C81.1816 54.8026 81.1508 54.9048 81.1332 54.9537C81.1156 55.0159 80.9617 55.6958 80.9617 55.7757C80.9617 55.8246 80.9792 55.8468 81.0012 55.8468C81.032 55.8468 81.054 55.8291 81.0804 55.7669C81.1024 55.7135 81.1288 55.6558 81.2123 55.5225C81.3399 55.3314 81.5246 55.2781 82.0084 55.2692L83.1694 55.2514V58.6018C83.1694 59.3616 83.1694 59.9882 83.1299 60.3214C83.0991 60.5525 83.0595 60.7258 82.9012 60.7569C82.8308 60.7747 82.7384 60.788 82.6681 60.788C82.6241 60.788 82.6065 60.8102 82.6065 60.8324C82.6065 60.8813 82.6461 60.8946 82.734 60.8946C82.9671 60.8946 83.4597 60.8724 83.4993 60.8724C83.5389 60.8724 84.0314 60.8946 84.4625 60.8946C84.5504 60.8946 84.59 60.8724 84.59 60.8324C84.59 60.8102 84.5724 60.788 84.524 60.788C84.4537 60.788 84.2821 60.7702 84.1722 60.7569C83.9347 60.7258 83.8907 60.5525 83.8687 60.3214C83.8291 59.9882 83.8291 59.3616 83.8291 58.6018V55.2514L83.8247 55.247Z" fill="var(--fill-0, #1D1D1B)"/>
<g id="Group_2">
<path id="Vector_2" d="M204.928 36.5711C202.381 39.4504 200.196 41.8677 198.691 43.3296C195.732 46.2001 194.553 44.707 194.553 44.707C189.095 39.0461 217.66 3.51161 218.544 1.95195C219.428 0.387849 218.544 0.0545887 218.544 0.0545887C206.911 -1.2829 193.159 22.4008 193.159 22.4008C190.749 25.849 184.64 35.5402 180.369 41.5433C174.885 49.2394 168.737 47.1421 168.737 47.1421C165.205 45.7246 164.528 41.1967 165.359 37.7397C167.228 29.9369 177.673 22.0587 180.427 25.2446C183.672 29.0038 176.002 34.607 176.002 34.607C176.002 34.607 175.602 35.2336 176.319 34.9981C177.616 34.567 184.09 28.6483 180.704 24.2982C177.313 19.9525 165.816 27.1376 163.666 37.2553C161.515 47.3687 167.967 48.6218 167.967 48.6218C167.967 48.6218 174.999 50.3503 181.091 41.7966C186.632 34.0205 197.469 16.6643 202.487 10.8389C206.203 6.52429 210.878 2.89841 213.513 1.83642C213.513 1.83642 216.93 1.05437 215.026 3.22723C213.126 5.40009 187.402 39.4238 192.697 44.8581C192.697 44.8581 195.116 47.6975 199.518 43.3785L205.381 37.1309L204.941 36.5666L204.928 36.5711Z" fill="var(--fill-0, #1D1D1B)"/>
<path id="Vector_3" d="M186.078 15.6334C186.078 15.6334 186.293 14.878 185.858 15.158C185.049 15.6867 183.131 17.9174 184.288 20.4235C185.445 22.934 188.726 23.6405 190.384 23.7472C193.132 23.9249 199.769 23.3695 202.76 22.8096C207.087 21.9965 219.907 18.8905 222.7 21.5077C222.7 21.5077 223.606 21.9876 223.325 21.3388C222.7 19.9125 217.163 19.988 213.275 20.4457C211.67 20.6323 207.562 21.3566 202.729 22.2009C198.916 22.8718 194.535 23.2895 190.489 23.0051C181.341 22.3564 185.84 15.9578 186.074 15.629" fill="var(--fill-0, #1D1D1B)"/>
<path id="Vector_4" d="M74.2811 53.1719C74.2811 53.1719 76.2778 51.8255 75.9963 51.4345C75.7148 51.039 73.9425 52.5053 73.9425 52.5053C73.9425 52.5053 65.5819 59.7216 58.6639 56.5089C51.0465 52.9719 53.9052 42.5786 54.6617 40.2458C58.8134 27.3908 69.3905 13.5539 75.4949 4.92908C75.4949 4.92908 77.7115 1.69867 76.3218 1.20989C72.3768 -0.180915 69.7908 3.15613 69.7908 3.15613C69.7908 3.15613 66.5846 6.2799 61.1971 12.8962C56.223 19.0149 49.4281 28.1596 40.7201 39.7081C40.7201 39.7081 36.3353 44.5204 38.6002 39.2282C41.0455 33.5139 58.721 9.17704 60.8321 5.78223C62.5605 3.00505 63.9854 1.02327 62.8156 0.525597C61.2631 -0.136481 58.9497 0.365632 56.0998 2.48517C52.2428 5.35565 37.6459 25.6357 31.2776 33.7894C24.9093 41.9432 17.7582 48.5951 10.4135 47.6353C0.575215 46.3556 2.47954 34.4737 3.53066 30.5457C5.16672 24.4493 11.2623 15.2779 18.7565 14.6958C26.2551 14.1093 27.3018 18.2728 27.3898 19.9658C27.4513 21.1078 27.6009 26.9865 20.353 31.4611C20.353 31.4611 19.7241 31.7943 19.6933 31.9765C19.6625 32.1587 19.9352 32.2387 19.9352 32.2387C19.9352 32.2387 28.7091 27.0887 28.0011 19.9391C27.293 12.7896 19.7504 14.0871 18.6158 14.1715C15.0182 14.4381 5.03478 17.6063 1.12057 29.8081C-3.05752 42.8408 5.45258 48.8217 10.176 48.8306C16.2145 48.835 22.5915 46.36 32.2012 33.9094C42.0966 21.09 52.4803 6.06661 57.0102 3.20945C57.0102 3.20945 62.8507 -0.536393 59.2752 4.80466C57.8898 6.87532 38.6794 32.9096 36.1461 41.3967C36.1461 41.3967 35.7195 43.103 36.6431 43.3429C38.3979 43.8095 41.3446 40.1347 41.3446 40.1347C41.3446 40.1347 64.39 8.49274 70.7847 3.49384C70.7847 3.49384 72.0953 2.03193 74.2371 2.46739C74.9672 2.61403 73.4323 4.49362 72.8913 5.22235C70.8903 7.89288 56.047 26.5732 52.5111 39.3038C48.9751 52.0299 55.4973 56.7844 59.7238 57.6198C62.9079 58.2463 67.904 58.1974 74.2811 53.1674" fill="var(--fill-0, #1D1D1B)"/>
<path id="Vector_5" d="M81.1947 42.6453C81.1947 41.4278 81.7621 40.188 82.2283 39.4327C82.6945 38.6773 83.2442 37.9352 83.8819 37.1976C84.5196 36.46 85.2057 35.7446 85.9534 35.0425C86.701 34.3449 87.3563 33.6917 87.9149 33.0918C88.2887 32.7141 88.3811 32.3942 88.1919 32.1276C88.0072 31.8654 87.7653 31.8165 87.242 31.7321C86.8374 31.6655 86.4899 31.6299 86.2612 31.8743C86.0809 32.0654 85.9226 32.2431 85.6807 32.5053C85.1705 33.0474 83.5301 35.238 83.1211 35.7268L81.7445 36.5133C82.1931 35.9845 84.6472 32.803 85.1309 32.2742C85.5048 31.901 85.6631 31.2433 85.8698 30.6035C86.0721 29.9592 85.8962 29.346 86.0853 28.8572C86.1601 28.6661 86.2304 28.5061 86.3976 28.2706C86.5999 27.9863 86.9209 27.8841 87.3563 27.8841C87.5454 27.8841 87.8357 28.0351 88.0028 28.1995C88.1524 28.3462 88.2447 28.6083 88.2447 28.7994C88.2447 29.1771 87.7697 29.5059 87.4707 29.9236C87.1716 30.3413 87.0221 30.5413 87.2288 30.759C87.3915 30.9278 89.2563 30.368 89.6257 30.8079C90.6152 31.9898 90.0435 33.3895 89.2607 34.3138C88.4778 35.238 87.9017 36.0778 87.0441 36.9843C86.5955 37.4775 86.0765 37.9441 85.6279 38.4151C85.1837 38.8861 84.546 39.486 84.2118 39.9392C83.8731 40.3924 83.3102 41.1612 83.1606 41.6188C83.0111 42.0721 82.8704 42.6186 82.9451 43.1163C83.0947 44.0716 83.9611 44.1649 84.1502 44.1338C86.5471 43.6806 91.6312 37.9308 92.1765 37.2687C92.7175 36.611 93.1925 35.8157 93.7906 35.1758C93.8302 35.1358 94.2832 35.0425 94.4767 35.1491C94.7186 35.2869 94.4767 35.5446 94.4767 35.5446C94.0325 36.0778 93.6323 36.5044 93.1837 37.0287C92.7351 37.5575 92.1941 38.2418 91.7103 38.735C90.624 39.7926 89.5157 40.819 88.3943 41.8588C87.2728 42.8986 86.0721 44.045 84.6164 44.5782C84.2821 44.6893 83.6972 44.8848 83.363 44.8848C82.8396 44.8848 82.1887 44.6804 81.8061 44.436C81.2035 44.045 81.2035 42.6542 81.2035 42.6542" fill="var(--fill-0, #1D1D1B)"/>
<path id="Vector_6" d="M61.2323 42.4942C61.1751 42.9563 61.2411 43.5206 61.4522 43.8717C61.6633 44.2227 62.3538 44.7115 62.8859 44.707C65.0937 44.6937 69.263 40.2236 69.7248 39.7615C70.49 38.6773 71.1365 37.8152 71.9414 36.7666C72.7462 35.7223 73.1684 34.8114 73.9337 33.7317C74.048 33.5762 74.0788 33.1229 74.1184 32.9318C74.158 32.7363 74.2151 32.5853 74.2151 32.3897C74.2151 31.8476 73.9952 31.5277 73.6918 31.3144C73.3839 31.1056 72.9397 31.0523 72.4779 31.0523C71.827 31.0523 71.5763 31.2122 70.7319 31.5988C69.8919 31.9854 69.0387 32.5097 68.1767 33.1673C67.3147 33.825 66.4615 34.5715 65.6171 35.4024C64.7771 36.2333 64.0294 37.0954 63.3785 37.9841C62.7276 38.8772 62.1998 39.7526 61.7996 40.6235C61.395 41.4944 61.3334 41.7122 61.2323 42.4942ZM83.2706 35.5802C81.1947 38.2596 76.9727 42.5253 73.8941 44.1383C72.7022 44.7604 71.6159 45.1603 70.5032 45.1247C69.8919 45.0847 69.4521 44.9115 69.1838 44.6004C68.9156 44.2894 68.7616 43.9117 68.7264 43.4673C68.6869 43.023 68.7352 42.5386 68.8672 42.0143C68.9991 41.4944 69.1838 41.019 69.4125 40.5924C68.9551 41.059 68.467 41.5611 67.948 42.1032C67.429 42.6453 66.8837 43.1296 66.3075 43.5562C65.7358 43.9828 65.1201 44.3382 64.4692 44.6315C63.8183 44.9203 63.1278 45.067 62.4021 45.067H62.1163C61.8084 45.067 61.5225 45.0092 61.2543 44.8937C60.6781 44.7026 60.2559 44.3605 59.992 43.8761C59.7238 43.3918 59.5698 42.8586 59.5346 42.2809V41.9343C59.5346 40.3836 59.9569 38.9528 60.7969 37.6375C61.6369 36.3222 62.6924 35.158 63.9546 34.1538C65.2212 33.1496 66.589 32.3364 68.0623 31.7188C69.5357 31.0967 70.9035 30.7323 72.1657 30.6168C72.8562 30.5368 73.4763 30.6346 74.0348 30.9056C74.589 31.1767 74.866 31.7188 74.866 32.5319C74.866 32.8785 74.7869 33.2073 74.6373 33.5139H74.6945C75.0024 33.1274 75.3454 32.6963 75.728 32.2076C76.1107 31.7232 76.4537 31.2878 76.7616 30.9012C76.9155 30.6701 77.1266 30.5546 77.3949 30.5546H78.7758C78.8902 30.5546 78.9474 30.6124 78.9474 30.7279C78.9474 30.7634 78.9078 30.8256 78.833 30.9012C78.2613 31.6788 77.6148 32.5408 76.9111 33.4828C76.203 34.4293 75.4993 35.3491 74.8133 36.2422C74.1228 37.1309 73.4983 37.9441 72.9485 38.6817C72.39 39.4149 71.9985 39.9614 71.7698 40.308C71.6951 40.3835 71.5675 40.5613 71.396 40.8279C71.2245 41.099 71.053 41.4011 70.8815 41.7299C70.7099 42.0587 70.556 42.3964 70.4197 42.7475C70.2877 43.0941 70.2394 43.4051 70.2745 43.6762C70.3889 44.3338 70.7715 44.6049 71.4224 44.4893C72.4559 44.2938 73.4147 43.8184 74.4086 43.2407C76.0931 42.2587 81.3223 37.3309 82.7516 35.2558C82.7516 35.2558 83.7324 34.9403 83.2662 35.5846" fill="var(--fill-0, #1D1D1B)"/>
<path id="Vector_7" d="M93.5179 39.3304C94.0677 38.0685 94.7933 36.9043 95.7301 35.7401C96.6713 34.5759 97.5597 33.745 98.7691 32.9096C99.9786 32.0743 101.016 31.4522 102.164 31.4522C102.279 31.4522 102.433 31.4833 102.626 31.541C102.82 31.5988 102.912 31.7055 102.912 31.861C102.912 31.9765 102.837 32.1498 102.683 32.3809C102.569 32.5008 102.512 32.6963 102.512 32.963C102.512 33.5051 102.78 33.7761 103.317 33.7761C103.699 33.7761 103.985 33.5939 104.179 33.2251C104.372 32.8563 104.469 32.5142 104.469 32.2076C104.469 31.821 104.39 31.5277 104.24 31.3322C104.086 31.1411 103.836 30.9456 103.493 30.7501C102.38 30.2835 101.104 30.3324 99.6663 30.8967C98.2282 31.4611 96.8648 32.2831 95.5762 33.3673C94.292 34.456 93.2276 35.7046 92.3832 37.122C91.5388 38.5395 91.1738 39.8681 91.2881 41.1034C91.4421 42.7386 91.8819 43.8317 92.6119 44.396C93.342 44.9559 94.1864 45.1914 95.1452 45.0936C96.1039 44.9959 96.6581 44.7737 97.6564 44.2805C99.1737 43.534 105.476 37.282 105.841 36.9132C106.206 36.5444 106.501 36.3222 106.848 35.9312C106.848 35.7401 106.584 35.4602 106.43 35.4602C106.083 35.7712 101.06 41.4589 98.0302 43.4407C97.4893 43.7917 96.5789 44.3027 96.0028 44.4005C95.4266 44.4982 94.6658 44.4849 94.1424 44.316C93.5443 44.1161 93.1089 43.7739 92.9462 42.6675C92.9462 42.6675 92.6559 41.2989 93.5179 39.3216" fill="var(--fill-0, #1D1D1B)"/>
<path id="Vector_8" d="M128.134 10.2612C129.727 8.23502 131.855 5.0135 129.159 4.6447C128.003 4.48917 125.848 7.333 125.848 7.333C123.961 10.0835 122.008 13.4117 119.932 16.5399L112.711 28.6217C112.711 28.6217 112.412 29.2926 113.049 28.8261C113.766 28.3017 128.13 10.2612 128.13 10.2612M112.416 30.5946C110.556 32.723 108.48 35.0914 108.502 35.0736C109.135 34.5448 109.725 33.8117 110.415 33.2296C111.101 32.6475 111.796 32.1054 112.39 31.7099C112.887 31.3766 113.309 31.11 113.977 30.8079C114.646 30.5057 115.468 30.519 116.102 30.519C116.66 30.5946 117.179 30.9501 117.474 31.3811C117.773 31.8165 117.79 32.4031 117.531 33.154C117.162 34.0205 116.695 34.8825 116.137 35.7446C115.578 36.611 114.984 37.4731 114.351 38.3351C113.977 38.7484 113.634 39.2016 113.318 39.6904C113.001 40.1792 112.698 40.6279 112.398 41.0412C112.099 41.5344 111.858 42.0765 111.673 42.6764C111.484 43.2763 111.541 43.765 111.84 44.1427C112.064 44.4449 112.376 44.5915 112.786 44.5915C113.195 44.5915 113.577 44.4715 113.867 44.3071C114.527 43.9383 115.402 43.3473 115.675 43.1429C116.343 42.6453 117.601 41.5522 117.496 41.6455C117.399 41.7344 118.076 41.7077 118.037 41.7433C117.966 41.7921 117.021 42.8097 116.124 43.5029C115.525 43.965 114.285 44.6893 113.986 44.8093C113.538 44.987 113.129 45.0625 112.513 45.0492C111.989 45.0359 111.462 44.9292 110.938 44.7026C110.529 44.476 110.261 44.1472 110.129 43.7162C109.997 43.2851 109.975 42.8097 110.046 42.2809C110.12 41.7921 110.287 41.3033 110.547 40.8146C110.806 40.3302 111.083 39.8992 111.383 39.5215C112.016 38.544 112.658 37.5753 113.309 36.6199C113.96 35.6646 114.619 34.7137 115.288 33.7761C115.547 33.3273 115.772 32.8741 115.956 32.4253C116.071 32.012 116.005 31.6921 115.759 31.4655C115.517 31.2389 115.209 31.1278 114.839 31.1278C114.395 31.1278 114.048 31.2744 113.621 31.4966C113.195 31.7232 112.583 32.1542 112.289 32.3853C111.303 33.154 110.582 33.785 109.615 34.6515C108.933 35.2602 107.433 36.5711 106.523 37.4909C105.74 38.6195 105.546 38.8861 104.693 40.0903C103.84 41.2945 103.022 42.4364 102.239 43.5251C101.944 43.8272 101.628 44.0805 101.294 44.2849C100.959 44.4938 100.7 44.6182 100.515 44.6537L99.1209 44.8803C98.9362 44.9159 99.0638 44.636 99.5124 44.0361L109.535 30.1458C111.466 27.7463 116.093 19.4415 117.808 16.8776C119.462 14.407 122.729 8.89266 124.049 6.83089C124.049 6.83089 126.85 2.0186 130.465 3.27166C131.354 3.58271 132.638 5.9333 129.054 10.0968L112.407 30.599L112.416 30.5946Z" fill="var(--fill-0, #1D1D1B)"/>
<path id="Vector_9" d="M123.693 36.7177C123.693 36.7177 126.208 33.2029 128.42 31.9987C131.204 30.4835 130.048 33.5317 130.048 33.5317C130.048 33.5317 128.244 36.9621 124.555 37.4953C122.896 37.7352 123.688 36.7177 123.688 36.7177M131.173 39.7215C128.693 42.4898 126.221 44.436 123.424 44.2272C122.087 44.1294 121.85 42.9341 121.898 41.5033C121.938 40.3969 122.94 38.2063 122.94 38.2063C130.004 37.633 133.056 32.9096 131.332 31.2256C130.426 30.3369 128.306 30.128 126.547 31.8432C122.421 35.8645 120.693 38.9794 116.326 42.703C116.326 42.703 116.304 43.1829 116.783 42.9074C117.337 42.5875 120.627 39.0461 120.183 40.6768C119.734 42.3076 119.928 45.147 122.487 45.1114C126.683 45.0536 130.527 41.5566 131.802 39.9525C132.519 39.0505 131.173 39.7215 131.173 39.7215Z" fill="var(--fill-0, #1D1D1B)"/>
<path id="Vector_10" d="M129.757 41.2722C130.769 40.1792 132.871 38.1263 137.977 32.7186C138.545 32.1187 139.996 29.4748 140.598 29.7459C141.161 29.9947 141.17 30.4568 141.109 30.9723C141.065 31.3455 140.154 32.0965 140.035 33.5139C139.886 35.2958 139.807 35.7446 139.754 37.4864C139.692 39.5482 139.235 40.7835 138.571 41.9743C136.253 46.1245 133.148 44.987 133.148 44.987C129.37 43.7517 129.551 40.659 129.551 40.659C129.432 39.8503 129.815 39.1794 130.347 38.695C130.817 38.2685 131.006 38.1929 131.657 38.2418C132.392 38.2996 132.744 38.9705 132.792 39.5393C132.814 39.8326 132.572 40.2902 132.176 40.6546C131.521 41.2589 131.046 42.9874 131.992 43.7473C132.788 44.3916 134.775 45.2092 136.35 43.7339C137.062 43.0719 137.26 42.312 137.502 41.1167C137.722 40.0103 137.639 39.8103 137.854 37.3753C137.854 37.3753 137.753 35.1536 137.687 34.9847C137.3 34.0116 130.593 41.0989 129.797 42.0054" fill="var(--fill-0, #1D1D1B)"/>
<path id="Vector_11" d="M205.434 45.3025C206.054 44.7115 207.109 43.5917 207.382 43.2674C208.345 42.0987 209.163 41.1612 210.012 40.1214C210.874 39.0638 212.598 36.8954 213.082 36.2911C213.521 35.7357 213.979 35.158 214.66 34.4515C215.325 33.7628 216.05 33.1318 216.824 32.5719C217.576 32.0298 218.302 31.7543 218.975 31.7543C219.204 31.7543 219.402 31.8121 219.564 31.9232C219.709 32.0254 219.96 32.3453 219.96 32.5986C219.96 33.5406 219.472 34.2782 218.861 35.078C218.223 35.909 217.532 36.731 216.798 37.5264C216.059 38.3262 215.355 39.1794 214.718 40.0503C214.067 40.939 213.737 41.921 213.737 42.9652C213.737 43.6495 213.935 44.1605 214.322 44.4893C214.704 44.8137 215.228 44.9781 215.896 44.9781C216.358 44.9781 216.824 44.9026 217.286 44.747C217.739 44.596 218.122 44.4182 218.43 44.2272C219.292 43.7339 220.576 42.7786 222.251 41.3878C223.927 39.997 225.801 38.0729 227.806 35.6601L227.841 35.6201V35.4513C227.841 35.2958 227.74 35.1891 227.586 35.1891C227.533 35.1891 227.45 35.2069 227.366 35.2958C226.992 35.7135 226.473 36.4866 225.616 37.4286C224.758 38.3707 223.8 39.2949 222.753 40.2814C221.706 41.2678 220.611 42.2631 219.472 43.0008C218.315 43.7517 217.462 44.2449 216.622 44.356C216.314 44.4182 215.879 44.2538 215.646 44.0716C215.338 43.8272 215.241 43.4495 215.241 43.103C215.241 42.4187 215.681 41.5966 216.297 40.699C216.925 39.7837 217.7 38.8994 218.474 37.9441C219.261 36.9843 220.092 36.0289 220.721 35.1091C221.367 34.1671 221.697 33.314 221.697 32.5719C221.697 32.0432 221.543 31.6121 221.235 31.2833C220.928 30.9545 220.505 30.7856 219.986 30.7856C219.292 30.7856 218.601 30.9634 217.933 31.31C217.277 31.6521 216.648 32.052 216.068 32.5142C215.487 32.963 214.951 33.4428 214.458 33.9361C214.41 33.9849 214.361 34.0338 214.313 34.0827C214.322 34.0738 214.326 34.0605 214.331 34.0472C214.507 33.6517 214.599 33.1762 214.599 32.6297C214.599 32.0831 214.419 31.6255 214.058 31.2033C213.697 30.7768 213.227 30.5546 212.659 30.5546C212.347 30.5546 211.85 30.5546 211.529 30.6746C211.23 30.7901 210.803 30.9723 210.491 31.1678C209.629 31.7321 208.89 32.3009 208.173 33.0429C207.465 33.7805 205.649 35.7268 204.932 36.5711C204.813 36.7088 204.422 37.4286 204.519 37.5619C204.629 37.7041 205.055 37.4864 205.258 37.2642C206.172 36.2733 208.094 34.2782 208.798 33.5406C209.458 32.8563 210.1 32.3897 210.922 31.7943C211.415 31.4344 212.413 30.8256 213.104 31.4566C213.631 31.9454 213.385 32.6652 212.747 33.4251C212.457 33.7717 212.004 34.2871 211.775 34.5626C210.381 36.2733 209.392 37.442 207.993 39.1438C206.617 40.8146 205.434 42.3609 203.978 44.0316C203.978 44.0316 203.71 45.0759 204.237 45.4447C204.712 45.7779 205.442 45.298 205.442 45.298" fill="var(--fill-0, #1D1D1B)"/>
<path id="Vector_12" d="M226.012 45.0225C224.213 45.0225 223.619 43.5118 223.584 42.9519C223.492 42.3165 223.562 41.6677 223.8 41.0367C224.037 40.4235 224.283 39.8726 224.534 39.3971C224.785 38.9261 229.596 31.4877 230.489 30.2613L227.797 30.2213C227.635 30.2213 227.573 29.8836 227.573 29.7237C227.573 29.6215 227.533 29.2793 227.723 29.2793H231.065L235.788 22.2231H237.921L233.119 29.2615L236.431 29.2793C236.624 29.2793 236.431 29.7725 236.431 29.8792C236.431 30.0436 236.312 30.2747 236.149 30.2747L232.53 30.2258C226.588 39.6504 226.157 40.1303 225.633 41.0945C225.343 41.6322 224.859 42.5831 225.075 43.4495C225.255 44.1872 225.779 44.6226 226.773 44.5604C226.773 44.5604 227.406 44.5115 228.738 43.5517C229.319 43.1385 229.776 42.7875 230.449 42.2631C231.311 41.6144 231.751 41.1078 232.556 40.1658C233.409 39.1616 233.629 38.4951 234.24 37.7841C234.583 37.3753 234.94 38.1707 234.592 38.5928C233.932 39.3482 233.158 40.1792 232.292 41.0501C231.426 41.9299 230.722 42.5653 229.816 43.2274C229.134 43.7606 228.541 44.2005 227.846 44.5515C227.208 44.8759 226.526 45.027 226.012 45.027" fill="var(--fill-0, #1D1D1B)"/>
<path id="Vector_13" d="M242.421 28.3684C241.95 28.3684 241.691 28.1062 241.691 27.6352C241.691 27.3153 241.822 27.0398 242.082 26.8132C242.333 26.5866 242.605 26.4755 242.887 26.4755C243.52 26.4755 243.617 26.8798 243.617 27.1153C243.617 27.4353 243.489 27.7241 243.234 27.9863C242.975 28.244 242.706 28.3728 242.421 28.3728M232.859 45.2403C232.486 45.2403 232.156 45.1292 231.87 44.907C231.588 44.6893 231.377 44.4093 231.25 44.0761C231.184 43.9072 231.149 43.6451 231.149 43.2763C231.149 42.5342 231.351 41.8055 231.747 41.1123C232.134 40.4369 232.534 39.8059 232.943 39.2371C233.378 38.5484 233.845 37.8685 234.324 37.2287C234.816 36.5711 237.451 33.1274 237.939 32.5097C238.124 32.2609 239.245 30.8256 239.329 30.7768C239.514 30.6212 239.733 30.5102 239.971 30.4568C240.191 30.408 241.422 30.4791 241.422 30.5546L241.295 30.7368C240.82 31.3677 236.787 36.8066 236.268 37.4953C235.78 38.144 235.283 38.8194 234.799 39.4993C234.32 40.1747 233.84 40.8457 233.374 41.5078C233.251 41.6633 233.088 41.9343 232.895 42.3165C232.697 42.703 232.534 43.0985 232.411 43.4984C232.296 43.8895 232.257 44.2272 232.301 44.5071C232.323 44.6537 232.406 44.8492 232.859 44.8492C233.581 44.8492 234.377 44.5915 235.226 44.085C236.088 43.574 236.87 42.8986 237.702 42.1521C238.528 41.41 239.575 40.2769 240.336 39.4282C241.101 38.5795 243.59 35.8468 243.674 35.7312C243.674 35.7312 244.07 36.4022 243.832 36.651C243.485 37.0154 239.448 41.2411 238.568 42.0721C237.675 42.9074 236.813 43.6451 235.819 44.276C234.808 44.9159 233.809 45.2403 232.859 45.2403Z" fill="var(--fill-0, #1D1D1B)"/>
<path id="Vector_14" d="M298.517 28.3684C298.051 28.3684 297.791 28.1062 297.791 27.6352C297.791 27.3153 297.923 27.0398 298.183 26.8132C298.438 26.5866 298.706 26.4755 298.988 26.4755C299.621 26.4755 299.713 26.8798 299.713 27.1153C299.713 27.4353 299.586 27.7241 299.331 27.9863C299.071 28.244 298.798 28.3728 298.517 28.3728M288.951 45.2403C288.582 45.2403 288.248 45.1292 287.966 44.907C287.685 44.6893 287.474 44.4093 287.342 44.0761C287.276 43.9072 287.241 43.6451 287.241 43.2763C287.241 42.5342 287.443 41.8055 287.839 41.1123C288.226 40.4369 288.626 39.8059 289.035 39.2371C289.47 38.5484 289.936 37.8685 290.416 37.2287C290.904 36.5711 293.543 33.1274 294.031 32.5097C294.216 32.2609 295.337 30.8256 295.425 30.7768C295.605 30.6212 295.825 30.5102 296.063 30.4568C296.283 30.408 297.519 30.4791 297.519 30.5546L297.391 30.7368C296.916 31.3677 292.883 36.8066 292.364 37.4953C291.876 38.144 291.379 38.8194 290.895 39.4993C290.411 40.1747 289.936 40.8457 289.47 41.5078C289.347 41.6633 289.184 41.9343 288.987 42.3165C288.789 42.703 288.626 43.0985 288.507 43.4984C288.388 43.8895 288.353 44.2272 288.393 44.5071C288.415 44.6537 288.498 44.8492 288.951 44.8492C289.673 44.8492 290.469 44.5915 291.317 44.085C292.179 43.574 292.962 42.8986 293.789 42.1521C294.616 41.41 295.795 40.2858 296.555 39.4371C297.321 38.5884 299.01 36.7666 299.093 36.651C299.093 36.651 299.643 35.9356 299.933 36.1178C300.188 36.2778 299.674 36.7799 299.507 37.0154C299.19 37.4731 295.526 41.1923 294.656 42.0676C293.794 42.9341 292.905 43.6406 291.907 44.2716C290.895 44.9115 289.897 45.2358 288.947 45.2358" fill="var(--fill-0, #1D1D1B)"/>
<path id="Vector_15" d="M274.667 31.2478C274.095 31.2478 273.404 31.4611 272.617 31.8876C271.821 32.3142 271.008 32.8741 270.185 33.5539C269.371 34.2293 268.558 35.0114 267.775 35.8779C266.983 36.7488 266.28 37.633 265.668 38.4906C265.053 39.3616 264.551 40.2058 264.186 41.0056C263.821 41.801 263.637 42.4809 263.637 43.0274C263.637 44.005 264.147 44.5204 265.193 44.5915C265.717 44.636 266.376 44.4493 267.12 44.0627C267.881 43.6673 268.668 43.1296 269.464 42.4542C270.269 41.7744 271.069 40.9923 271.848 40.1258C272.63 39.2594 273.347 38.3707 273.985 37.4864C274.614 36.6066 275.124 35.7401 275.493 34.9136C275.859 34.1005 276.048 33.3895 276.048 32.8074C276.048 32.3142 275.933 31.9232 275.713 31.6477C275.498 31.3811 275.146 31.2433 274.667 31.2433M265.066 45.2314C264.155 45.2314 263.469 44.9426 263.03 44.3738C262.599 43.8184 262.344 43.1252 262.264 42.2987V42.001C262.264 40.6857 262.66 39.326 263.439 37.9574C264.217 36.6022 265.215 35.3624 266.407 34.2693C267.595 33.1851 268.896 32.2831 270.277 31.5944C271.667 30.9012 273.009 30.5501 274.266 30.5501C275.898 30.5501 276.729 31.3677 276.729 32.9807C276.729 33.9183 276.483 34.8159 276.004 35.6513C275.564 36.42 275.252 36.9265 274.75 37.5886C275.37 38.2862 276.923 38.2551 277.517 38.0463C278.189 37.8152 279.025 37.2376 279.557 36.7532C280.098 36.2644 280.556 35.7046 281.004 35.2513L281.506 35.5713C281.083 36.0378 280.419 36.6955 279.878 37.1842C279.329 37.6864 278.607 38.1663 277.86 38.424C276.787 38.7928 275.146 38.8639 274.337 38.1085C274.003 38.5306 273.448 39.2638 272.912 39.9792C272.309 40.779 271.579 41.5744 270.748 42.3387C269.921 43.0985 269.02 43.7739 268.074 44.3516C267.111 44.9337 266.095 45.2269 265.061 45.2269" fill="var(--fill-0, #1D1D1B)"/>
<path id="Vector_16" d="M274.341 38.1085C273.317 37.2509 272.996 32.6386 275.648 32.883C276.382 32.9496 276.483 33.9494 276.51 34.056L275.973 34.1893L276.316 34.1049L275.973 34.1938C275.929 34.0205 275.758 33.6339 275.551 33.5895C274.086 33.2518 273.845 36.7799 274.75 37.593L274.341 38.1129V38.1085Z" fill="var(--fill-0, #1D1D1B)"/>
<path id="Vector_17" d="M138.615 40.6457C138.835 40.9434 139.151 41.0945 139.565 41.0945C139.978 41.0945 140.466 40.939 140.77 40.7968C141.311 40.5391 142.133 40.0192 142.52 39.6859C143.154 39.1438 144.381 37.9174 144.262 38.0507L144.825 38.2507C144.754 38.2996 143.813 39.3171 142.912 40.0103C142.314 40.4724 141.073 41.1923 140.774 41.3167C140.326 41.4944 139.921 41.57 139.301 41.5566C138.778 41.5433 138.25 41.4367 137.731 41.21" fill="var(--fill-0, #1D1D1B)"/>
<path id="Vector_18" d="M147.002 36.7177C147.002 36.7177 149.517 33.2029 151.73 31.9987C154.514 30.4835 153.357 33.5317 153.357 33.5317C153.357 33.5317 151.558 36.9621 147.864 37.4953C146.206 37.7352 146.997 36.7177 146.997 36.7177M142.964 39.9525C143.374 39.6593 143.633 39.6593 143.488 40.1925C143.044 41.8232 143.237 44.9825 145.792 45.1114C150.045 45.3291 153.594 41.8232 154.98 39.9525C155.362 39.4371 154.619 39.797 154.619 39.797C152.323 41.9921 150.019 44.5782 146.716 44.4271C145.379 44.3649 145.155 42.9297 145.203 41.5033C145.243 40.3969 146.245 38.2063 146.245 38.2063C153.304 37.633 156.361 32.9096 154.632 31.2256C153.726 30.3369 151.611 30.128 149.852 31.8432C147.45 34.1849 145.863 36.2156 144.09 38.2374" fill="var(--fill-0, #1D1D1B)"/>
<path id="Vector_19" d="M279.456 42.6453C279.456 41.4278 280.023 40.188 280.49 39.4326C280.956 38.6773 281.506 37.9352 282.139 37.1976C282.772 36.46 283.467 35.7446 284.21 35.0425C284.958 34.3449 285.609 33.6917 286.172 33.0918C286.546 32.7141 286.638 32.3942 286.453 32.1276C286.264 31.8654 286.027 31.8165 285.499 31.7321C285.094 31.6655 284.747 31.6299 284.518 31.8743C284.338 32.0654 284.179 32.2431 283.938 32.5053C283.427 33.0474 281.664 35.4868 281.149 35.949L280.23 36.0734C280.863 35.4868 282.856 32.9407 283.304 32.2653C283.595 31.821 283.92 31.2433 284.127 30.599C284.329 29.9547 284.153 29.3415 284.342 28.8527C284.417 28.6617 284.487 28.5017 284.65 28.2662C284.852 27.9818 285.178 27.8796 285.609 27.8796C285.794 27.8796 286.088 28.0307 286.255 28.1951C286.405 28.3417 286.497 28.6039 286.497 28.795C286.497 29.1771 286.018 29.5015 285.719 29.9192C285.42 30.3369 285.27 30.5368 285.477 30.759C285.635 30.9278 287.504 30.368 287.869 30.8079C288.863 31.9898 288.287 33.3895 287.504 34.3138C286.717 35.238 286.145 36.0778 285.283 36.9843C284.835 37.4775 284.316 37.9441 283.867 38.4151C283.423 38.8861 282.79 39.486 282.451 39.9392C282.117 40.3924 281.55 41.1612 281.4 41.6188C281.25 42.0721 281.11 42.6186 281.184 43.1163C281.334 44.0716 282.2 44.1649 282.39 44.1338C284.786 43.6806 289.875 37.9308 290.416 37.2687C290.957 36.611 291.432 35.8157 292.03 35.1758C292.07 35.1358 292.522 35.0425 292.716 35.1491C292.958 35.2869 292.716 35.5446 292.716 35.5446C292.267 36.0778 291.872 36.5044 291.419 37.0287C290.974 37.5575 290.429 38.2418 289.945 38.735C288.863 39.7926 287.751 40.8235 286.629 41.8588C285.508 42.8986 284.307 44.045 282.847 44.5782C282.513 44.6893 281.932 44.8848 281.594 44.8848C281.07 44.8848 280.419 44.6804 280.037 44.436C279.438 44.045 279.438 42.6542 279.438 42.6542" fill="var(--fill-0, #1D1D1B)"/>
<path id="Vector_20" d="M243.388 45.3291C244.008 44.7382 245.064 43.6184 245.332 43.294C246.3 42.1254 247.113 41.1878 247.966 40.1436C248.828 39.0861 250.552 36.9221 251.036 36.3133C251.476 35.7579 251.933 35.1802 252.62 34.4693C253.284 33.7805 254.009 33.1496 254.779 32.5941C255.531 32.0476 256.257 31.7721 256.93 31.7721C257.158 31.7721 257.356 31.8299 257.519 31.9454C257.664 32.0476 257.919 32.3675 257.919 32.6208C257.919 33.5628 257.431 34.3004 256.82 35.1003C256.182 35.9312 255.491 36.7532 254.757 37.5486C254.018 38.3529 253.314 39.2016 252.677 40.077C252.026 40.9656 251.696 41.9477 251.696 42.9919C251.696 43.6762 251.894 44.1916 252.281 44.5204C252.659 44.8404 253.187 45.0048 253.855 45.0048C254.317 45.0048 254.783 44.9248 255.245 44.7737C255.698 44.6226 256.081 44.4449 256.384 44.2494C257.246 43.7561 258.535 42.8052 260.21 41.41C261.886 40.0147 263.755 38.0907 265.765 35.6824L265.8 35.6424V35.4735C265.8 35.318 265.695 35.2113 265.545 35.2113C265.492 35.2113 265.413 35.2291 265.325 35.318C264.952 35.7312 264.428 36.5044 263.575 37.4464C262.717 38.3884 261.759 39.3171 260.712 40.2991C259.665 41.2856 258.57 42.2809 257.427 43.0185C256.27 43.765 255.417 44.2583 254.581 44.3693C254.273 44.436 253.838 44.2716 253.605 44.085C253.292 43.845 253.196 43.4629 253.196 43.1207C253.196 42.4364 253.635 41.6144 254.251 40.7168C254.88 39.8015 255.654 38.9172 256.428 37.9663C257.211 37.0021 258.042 36.0512 258.676 35.1314C259.322 34.1894 259.652 33.3362 259.652 32.5897C259.652 32.0654 259.498 31.6344 259.195 31.3011C258.887 30.9723 258.469 30.8034 257.941 30.8034C257.246 30.8034 256.556 30.9812 255.892 31.3278C255.232 31.6699 254.603 32.0743 254.023 32.5319C253.446 32.9807 252.901 33.4606 252.413 33.9538C252.364 34.0027 252.316 34.0516 252.268 34.1005C252.272 34.0872 252.277 34.0783 252.285 34.0649C252.461 33.6739 252.549 33.194 252.549 32.6519C252.549 32.1098 252.369 31.6477 252.013 31.2256C251.652 30.799 251.181 30.5812 250.614 30.5812C250.302 30.5812 249.805 30.5812 249.488 30.7057C249.189 30.8212 248.763 31.0034 248.45 31.1989C247.588 31.7632 246.845 32.332 246.133 33.074C245.424 33.8072 243.608 35.7535 242.887 36.6022C242.772 36.7399 242.377 37.4597 242.473 37.593C242.579 37.7352 243.01 37.5131 243.212 37.2953C244.127 36.3044 246.049 34.3049 246.753 33.5762C247.412 32.8919 248.054 32.4253 248.877 31.8299C249.369 31.4699 250.363 30.8612 251.054 31.4922C251.582 31.9809 251.335 32.7008 250.698 33.4606C250.407 33.8028 249.954 34.3182 249.726 34.5981C248.332 36.3133 247.346 37.4775 245.943 39.1794C244.571 40.8457 243.388 42.3964 241.928 44.0672C241.928 44.0672 241.664 45.1114 242.192 45.4802C242.667 45.8179 243.397 45.3336 243.397 45.3336" fill="var(--fill-0, #1D1D1B)"/>
</g>
</g>
</svg>
